<svg width="410" height="76" viewBox="0 0 410 76" fill="none" xmlns="http://www.w3.org/2000/svg">
<g filter="url(#filter0_d)">
<rect x="4" width="402" height="68" rx="11" fill="#C4C4C4"/>
<path d="M28.988 21.8H34.82V42.248H47.456V47H28.988V21.8ZM69.1499 37.388C69.1499 37.46 69.1139 37.964 69.0419 38.9H54.3899C54.6539 40.1 55.2779 41.048 56.2619 41.744C57.2459 42.44 58.4699 42.788 59.9339 42.788C60.9419 42.788 61.8299 42.644 62.5979 42.356C63.3899 42.044 64.1219 41.564 64.7939 40.916L67.7819 44.156C65.9579 46.244 63.2939 47.288 59.7899 47.288C57.6059 47.288 55.6739 46.868 53.9939 46.028C52.3139 45.164 51.0179 43.976 50.1059 42.464C49.1939 40.952 48.7379 39.236 48.7379 37.316C48.7379 35.42 49.1819 33.716 50.0699 32.204C50.9819 30.668 52.2179 29.48 53.7779 28.64C55.3619 27.776 57.1259 27.344 59.0699 27.344C60.9659 27.344 62.6819 27.752 64.2179 28.568C65.7539 29.384 66.9539 30.56 67.8179 32.096C68.7059 33.608 69.1499 35.372 69.1499 37.388ZM59.1059 31.592C57.8339 31.592 56.7659 31.952 55.9019 32.672C55.0379 33.392 54.5099 34.376 54.3179 35.624H63.8579C63.6659 34.4 63.1379 33.428 62.2739 32.708C61.4099 31.964 60.3539 31.592 59.1059 31.592ZM80.1735 27.344C83.1735 27.344 85.4775 28.064 87.0855 29.504C88.6935 30.92 89.4975 33.068 89.4975 35.948V47H84.2415V44.588C83.1855 46.388 81.2175 47.288 78.3375 47.288C76.8495 47.288 75.5535 47.036 74.4495 46.532C73.3695 46.028 72.5415 45.332 71.9655 44.444C71.3895 43.556 71.1015 42.548 71.1015 41.42C71.1015 39.62 71.7735 38.204 73.1175 37.172C74.4855 36.14 76.5855 35.624 79.4175 35.624H83.8815C83.8815 34.4 83.5095 33.464 82.7655 32.816C82.0215 32.144 80.9055 31.808 79.4175 31.808C78.3855 31.808 77.3655 31.976 76.3575 32.312C75.3735 32.624 74.5335 33.056 73.8375 33.608L71.8215 29.684C72.8775 28.94 74.1375 28.364 75.6015 27.956C77.0895 27.548 78.6135 27.344 80.1735 27.344ZM79.7415 43.508C80.7015 43.508 81.5535 43.292 82.2975 42.86C83.0415 42.404 83.5695 41.744 83.8815 40.88V38.9H80.0295C77.7255 38.9 76.5735 39.656 76.5735 41.168C76.5735 41.888 76.8495 42.464 77.4015 42.896C77.9775 43.304 78.7575 43.508 79.7415 43.508ZM99.9443 30.188C100.616 29.252 101.516 28.544 102.644 28.064C103.796 27.584 105.116 27.344 106.604 27.344V32.528C105.98 32.48 105.56 32.456 105.344 32.456C103.736 32.456 102.476 32.912 101.564 33.824C100.652 34.712 100.196 36.056 100.196 37.856V47H94.5803V27.632H99.9443V30.188ZM121.716 27.344C124.116 27.344 126.048 28.064 127.512 29.504C129 30.944 129.744 33.08 129.744 35.912V47H124.128V36.776C124.128 35.24 123.792 34.1 123.12 33.356C122.448 32.588 121.476 32.204 120.204 32.204C118.788 32.204 117.66 32.648 116.82 33.536C115.98 34.4 115.56 35.696 115.56 37.424V47H109.944V27.632H115.308V29.9C116.052 29.084 116.976 28.46 118.08 28.028C119.184 27.572 120.396 27.344 121.716 27.344ZM169.834 27.344C172.258 27.344 174.178 28.064 175.594 29.504C177.034 30.92 177.754 33.056 177.754 35.912V47H172.138V36.776C172.138 35.24 171.814 34.1 171.166 33.356C170.542 32.588 169.642 32.204 168.466 32.204C167.146 32.204 166.102 32.636 165.334 33.5C164.566 34.34 164.182 35.6 164.182 37.28V47H158.566V36.776C158.566 33.728 157.342 32.204 154.894 32.204C153.598 32.204 152.566 32.636 151.798 33.5C151.03 34.34 150.646 35.6 150.646 37.28V47H145.03V27.632H150.394V29.864C151.114 29.048 151.99 28.424 153.021 27.992C154.078 27.56 155.23 27.344 156.478 27.344C157.846 27.344 159.082 27.62 160.186 28.172C161.29 28.7 162.178 29.48 162.85 30.512C163.642 29.504 164.638 28.724 165.838 28.172C167.062 27.62 168.394 27.344 169.834 27.344ZM192.214 47.288C190.174 47.288 188.338 46.868 186.706 46.028C185.098 45.164 183.838 43.976 182.926 42.464C182.014 40.952 181.558 39.236 181.558 37.316C181.558 35.396 182.014 33.68 182.926 32.168C183.838 30.656 185.098 29.48 186.706 28.64C188.338 27.776 190.174 27.344 192.214 27.344C194.254 27.344 196.078 27.776 197.686 28.64C199.294 29.48 200.554 30.656 201.466 32.168C202.378 33.68 202.834 35.396 202.834 37.316C202.834 39.236 202.378 40.952 201.466 42.464C200.554 43.976 199.294 45.164 197.686 46.028C196.078 46.868 194.254 47.288 192.214 47.288ZM192.214 42.68C193.654 42.68 194.83 42.2 195.742 41.24C196.678 40.256 197.146 38.948 197.146 37.316C197.146 35.684 196.678 34.388 195.742 33.428C194.83 32.444 193.654 31.952 192.214 31.952C190.774 31.952 189.586 32.444 188.65 33.428C187.714 34.388 187.246 35.684 187.246 37.316C187.246 38.948 187.714 40.256 188.65 41.24C189.586 42.2 190.774 42.68 192.214 42.68ZM211.952 30.188C212.624 29.252 213.524 28.544 214.652 28.064C215.804 27.584 217.124 27.344 218.612 27.344V32.528C217.988 32.48 217.568 32.456 217.352 32.456C215.744 32.456 214.484 32.912 213.572 33.824C212.66 34.712 212.204 36.056 212.204 37.856V47H206.588V27.632H211.952V30.188ZM240.748 37.388C240.748 37.46 240.712 37.964 240.64 38.9H225.988C226.252 40.1 226.876 41.048 227.86 41.744C228.844 42.44 230.068 42.788 231.532 42.788C232.54 42.788 233.428 42.644 234.196 42.356C234.988 42.044 235.72 41.564 236.392 40.916L239.38 44.156C237.556 46.244 234.892 47.288 231.388 47.288C229.204 47.288 227.272 46.868 225.592 46.028C223.912 45.164 222.616 43.976 221.704 42.464C220.792 40.952 220.336 39.236 220.336 37.316C220.336 35.42 220.78 33.716 221.668 32.204C222.58 30.668 223.816 29.48 225.376 28.64C226.96 27.776 228.724 27.344 230.668 27.344C232.564 27.344 234.28 27.752 235.816 28.568C237.352 29.384 238.552 30.56 239.416 32.096C240.304 33.608 240.748 35.372 240.748 37.388ZM230.704 31.592C229.432 31.592 228.364 31.952 227.5 32.672C226.636 33.392 226.108 34.376 225.916 35.624H235.456C235.264 34.4 234.736 33.428 233.872 32.708C233.008 31.964 231.952 31.592 230.704 31.592Z" fill="#00F5AB"/>
<path d="M385.768 35.7678C386.744 34.7915 386.744 33.2085 385.768 32.2322L369.858 16.3223C368.882 15.346 367.299 15.346 366.322 16.3223C365.346 17.2986 365.346 18.8816 366.322 19.8579L380.464 34L366.322 48.1421C365.346 49.1184 365.346 50.7014 366.322 51.6777C367.299 52.654 368.882 52.654 369.858 51.6777L385.768 35.7678ZM266 36.5H384V31.5H266V36.5Z" fill="#00F5AB"/>
</g>
<defs>
<filter id="filter0_d" x="0" y="0" width="410" height="76" filterUnits="userSpaceOnUse" color-interpolation-filters="sRGB">
<feFlood flood-opacity="0" result="BackgroundImageFix"/>
<feColorMatrix in="SourceAlpha" type="matrix" values="0 0 0 0 0 0 0 0 0 0 0 0 0 0 0 0 0 0 127 0"/>
<feOffset dy="4"/>
<feGaussianBlur stdDeviation="2"/>
<feColorMatrix type="matrix" values="0 0 0 0 0 0 0 0 0 0 0 0 0 0 0 0 0 0 0.25 0"/>
<feBlend mode="normal" in2="BackgroundImageFix" result="effect1_dropShadow"/>
<feBlend mode="normal" in="SourceGraphic" in2="effect1_dropShadow" result="shape"/>
</filter>
</defs>
</svg>
